<svg width="45" height="45" viewBox="0 0 45 45" fill="none" xmlns="http://www.w3.org/2000/svg">
<path d="M22.5 0C18.0499 0 13.6998 1.3196 9.99968 3.79193C6.29957 6.26427 3.41569 9.77829 1.71272 13.8896C0.00974897 18.001 -0.435826 22.525 0.432341 26.8895C1.30051 31.2541 3.44343 35.2632 6.59011 38.4099C9.73679 41.5566 13.7459 43.6995 18.1105 44.5677C22.475 45.4358 26.999 44.9903 31.1104 43.2873C35.2217 41.5843 38.7357 38.7004 41.2081 35.0003C43.6804 31.3002 45 26.9501 45 22.5C45 16.5326 42.6295 10.8097 38.4099 6.5901C34.1903 2.37053 28.4674 0 22.5 0ZM35.4682 31.3057C34.8136 31.3977 31.6125 31.3057 31.4463 31.3057C30.6188 31.3165 29.8203 31.0005 29.2244 30.4261C28.5494 29.7741 27.946 29.0582 27.2864 28.3807C27.092 28.1727 26.8808 27.9812 26.6548 27.808C26.1281 27.404 25.6065 27.4935 25.3585 28.1173C25.1649 28.7888 25.0297 29.4757 24.9546 30.1705C24.9111 30.7994 24.5122 31.1932 23.8065 31.2366C23.3693 31.2597 22.9321 31.2699 22.5 31.2571C20.9251 31.2485 19.3748 30.8655 17.977 30.1398C16.4642 29.2976 15.146 28.1459 14.1085 26.7597C12.4031 24.5813 11.0403 22.1881 9.8233 19.7207C9.75938 19.5955 8.51166 16.9415 8.48097 16.8162C8.36847 16.3994 8.48097 15.998 8.82615 15.8574C9.04603 15.773 13.1574 15.8574 13.2264 15.8574C13.5323 15.8553 13.8309 15.9505 14.0791 16.1293C14.3273 16.3081 14.5122 16.5612 14.6071 16.852C15.3678 18.7977 16.4083 20.622 17.6957 22.2673C17.8761 22.4865 18.0871 22.6785 18.3222 22.8375C18.6571 23.0676 18.9742 22.9884 19.1122 22.5997C19.276 22.0641 19.3722 21.5101 19.3986 20.9506C19.4216 19.8409 19.3986 19.1122 19.3372 18.0026C19.2963 17.2918 19.0457 16.6705 17.9974 16.4685C17.6753 16.4097 17.6472 16.1437 17.8543 15.8778C18.2864 15.3281 18.877 15.2386 19.5392 15.2054C20.5261 15.1491 21.5131 15.1875 22.5 15.2054H22.7148C23.1443 15.2038 23.5728 15.2475 23.9932 15.3358C24.2419 15.3866 24.4676 15.5163 24.6366 15.7056C24.8057 15.8949 24.9091 16.1338 24.9315 16.3866C24.9823 16.6666 25.0037 16.9511 24.9955 17.2355C24.9699 18.4449 24.9111 19.6568 24.8983 20.8662C24.8864 21.3461 24.9302 21.8257 25.0287 22.2955C25.1693 22.9398 25.6117 23.1009 26.0514 22.6355C26.6214 22.0353 27.1437 21.3916 27.6136 20.7102C28.4466 19.4683 29.133 18.1341 29.6591 16.7344C29.9455 16.0159 30.1705 15.8574 30.9375 15.8574H35.2994C35.5588 15.8528 35.8174 15.8873 36.0665 15.9597C36.1547 15.9828 36.2371 16.024 36.3086 16.0805C36.3802 16.137 36.4393 16.2076 36.4822 16.288C36.5252 16.3685 36.5511 16.4569 36.5583 16.5477C36.5655 16.6386 36.5539 16.73 36.5242 16.8162C36.3094 17.7724 35.7929 18.5881 35.2457 19.373C34.3585 20.6284 33.4227 21.8531 32.5151 23.0932C32.4059 23.2535 32.306 23.42 32.2159 23.5918C31.8733 24.2105 31.8989 24.5557 32.3949 25.067C33.1875 25.8827 34.0338 26.6446 34.7983 27.4832C35.359 28.0934 35.8655 28.7513 36.3119 29.4494C36.8565 30.329 36.5114 31.1574 35.4682 31.3057Z" fill="black"/>
</svg>
