<svg width="45" height="45" viewBox="0 0 45 45" fill="none" xmlns="http://www.w3.org/2000/svg">
<path d="M22.5 0C10.0755 0 0 10.0755 0 22.5C0 34.9245 10.0755 45 22.5 45C34.9245 45 45 34.9245 45 22.5C45 10.0755 34.9245 0 22.5 0ZM22.9769 35.6001C22.9765 35.6001 22.9772 35.6001 22.9769 35.6001H22.9714C20.7175 35.5992 18.5027 35.0341 16.5358 33.9615L9.39709 35.8336L11.3077 28.8573C10.129 26.8159 9.50898 24.4999 9.51003 22.1272C9.51311 14.7045 15.5543 8.66584 22.9769 8.66584C26.579 8.66716 29.9604 10.0693 32.5027 12.6137C35.0454 15.1584 36.4447 18.5408 36.4434 22.1378C36.4402 29.5608 30.3985 35.6002 22.9768 35.6002L22.9769 35.6001Z" fill="black"/>
<path d="M22.9811 10.9402C16.807 10.9402 11.786 15.9592 11.7832 22.1287C11.7826 24.2429 12.3744 26.3018 13.4947 28.0833L13.7607 28.5066L12.6299 32.6357L16.8662 31.5248L17.275 31.7672C18.9933 32.7868 20.9634 33.3262 22.9718 33.3269H22.9762C29.1454 33.3269 34.1665 28.3075 34.1692 22.1376C34.1703 19.1476 33.0071 16.3365 30.894 14.2217C28.7808 12.1068 25.9703 10.9412 22.9811 10.9402ZM29.5646 26.9394C29.2841 27.7248 27.94 28.4421 27.2935 28.539C26.7136 28.6254 25.9804 28.6615 25.1742 28.4056C24.6853 28.2505 24.0587 28.0435 23.2557 27.6971C19.8805 26.24 17.676 22.8425 17.5078 22.6179C17.3396 22.3934 16.1338 20.7939 16.1338 19.138C16.1338 17.4825 17.003 16.6685 17.3114 16.332C17.62 15.9952 17.9847 15.9111 18.2088 15.9111C18.433 15.9111 18.6576 15.9132 18.8537 15.9228C19.0603 15.9331 19.3377 15.8442 19.6107 16.5002C19.8911 17.1739 20.5641 18.8293 20.6482 18.9976C20.7323 19.1661 20.7882 19.3626 20.6763 19.5871C20.5641 19.8116 20.1912 20.2961 19.8352 20.7376C19.6858 20.9226 19.4912 21.0874 19.6876 21.4242C19.8836 21.7607 20.5593 22.8624 21.5594 23.7544C22.8448 24.9004 23.9289 25.2554 24.2654 25.4239C24.6015 25.5922 24.7979 25.564 24.9943 25.3398C25.1903 25.1153 25.8354 24.3576 26.0595 24.0208C26.2838 23.684 26.5083 23.7402 26.8166 23.8525C27.1253 23.9644 28.7794 24.7785 29.1159 24.9467C29.4523 25.1153 29.6766 25.1994 29.7606 25.3398C29.8451 25.4802 29.8451 26.1535 29.5646 26.9394Z" fill="black"/>
</svg>
