<svg width="80" height="80" viewBox="0 0 80 80" fill="none" xmlns="http://www.w3.org/2000/svg">
<path d="M39.8568 0.0020752C49.7519 0.0020752 58.8072 3.58996 65.7835 9.53104C72.8612 15.5589 77.7971 24.0096 79.2955 33.5932L79.3529 33.9603L78.9849 34.0196C77.5724 34.2476 76.3281 34.9702 75.4414 36.0006C74.569 37.0144 74.0429 38.3273 74.0429 39.7619C74.0429 41.1961 74.569 42.509 75.4411 43.5224C76.3278 44.5532 77.5718 45.2755 78.9839 45.5037L79.352 45.5631L79.2945 45.9302C77.7946 55.5125 72.8587 63.9619 65.7812 69.9885C58.8053 75.9286 49.751 79.5159 39.8568 79.5159C29.9563 79.5159 20.8966 75.9248 13.9193 69.9789C6.84156 63.9475 1.90758 55.4908 0.414331 45.9005L0.358789 45.543L0.714704 45.4753C2.08889 45.2149 3.2939 44.4842 4.15129 43.4599C4.99176 42.4553 5.49674 41.167 5.49674 39.7619C5.49674 38.3567 4.99144 37.0681 4.15097 36.0635C3.29358 35.0389 2.08825 34.3082 0.713747 34.048L0.357831 33.9807L0.413373 33.6232C1.90567 24.0317 6.83901 15.5739 13.9171 9.54126C20.8946 3.59443 29.9553 0.0023944 39.8568 0.0023944V0.0020752ZM65.2999 10.0999C58.4567 4.27211 49.5706 0.752531 39.8568 0.752531C30.1386 0.752531 21.248 4.27594 14.4036 10.1098C7.54286 15.9573 2.7356 24.1245 1.20788 33.3902C2.6092 33.7355 3.83431 34.5186 4.72522 35.5828C5.67582 36.7189 6.24688 38.1748 6.24688 39.7619C6.24688 41.3486 5.67582 42.8045 4.72554 43.9406C3.83495 45.0051 2.60984 45.7882 1.20884 46.1335C2.73784 55.3979 7.54509 63.5642 14.4058 69.4104C21.2502 75.243 30.1398 78.7658 39.8568 78.7658C49.5693 78.7658 58.4548 75.2468 65.2976 69.4203C72.1539 63.582 76.9614 55.4266 78.4981 46.1725C77.0582 45.8565 75.7938 45.0805 74.8722 44.0092C73.8868 42.8639 73.2925 41.3812 73.2925 39.7622C73.2925 38.1428 73.8872 36.6601 74.8729 35.5145C75.7947 34.4432 77.0591 33.6672 78.4994 33.3515C76.9637 24.0958 72.1564 15.9391 65.2999 10.1002V10.0999ZM26.325 56.706C26.325 56.758 26.3062 56.8021 26.2682 56.8378C26.2302 56.8739 26.1852 56.8918 26.1335 56.8918C26.0776 56.8918 26.0285 56.8739 25.9866 56.8378C25.9448 56.8018 25.9238 56.758 25.9238 56.706V53.5293C25.8436 53.701 25.7578 53.8839 25.6658 54.0777C25.5739 54.2714 25.481 54.4684 25.3872 54.6682C25.2933 54.868 25.2004 55.0646 25.1085 55.2587C25.0166 55.4525 24.9307 55.6354 24.8509 55.8071C24.8069 55.8869 24.743 55.9268 24.6591 55.9268C24.5713 55.9268 24.5071 55.8869 24.4672 55.8071L23.3883 53.5293V56.706C23.3883 56.758 23.3682 56.8021 23.3283 56.8378C23.2884 56.8739 23.2383 56.8918 23.1786 56.8918C23.1265 56.8918 23.0828 56.8739 23.0467 56.8378C23.0107 56.8018 22.9928 56.758 22.9928 56.706V52.7619C22.9928 52.698 23.0129 52.646 23.0528 52.6061C23.0927 52.5662 23.1447 52.5461 23.2086 52.5461C23.3047 52.5461 23.3765 52.5921 23.4244 52.684V52.6779L24.6651 55.3334L25.8998 52.6719V52.6779C25.9279 52.63 25.9598 52.5959 25.9956 52.5761C26.0316 52.556 26.0715 52.5461 26.1156 52.5461C26.1715 52.5461 26.2206 52.5672 26.2624 52.609C26.3046 52.6508 26.3253 52.7019 26.3253 52.7619V56.706H26.325ZM30.0594 56.6281C30.0594 56.6881 30.0406 56.737 30.0026 56.775C29.9646 56.8129 29.9177 56.8318 29.8618 56.8318H28.2374C28.1454 56.8318 28.0656 56.8148 27.9976 56.7807C27.9297 56.7469 27.8958 56.6837 27.8958 56.5917V52.8516C27.8958 52.7877 27.9188 52.7306 27.9648 52.6808C28.0107 52.6307 28.0698 52.6058 28.1416 52.6058H29.8021C29.858 52.6058 29.9039 52.6259 29.94 52.6658C29.9761 52.7057 29.994 52.7536 29.994 52.8098C29.994 52.8618 29.9761 52.9046 29.94 52.9387C29.9039 52.9726 29.858 52.9898 29.8021 52.9898H28.2916V54.5185H29.6824C29.7344 54.5185 29.7795 54.5364 29.8174 54.5724C29.8554 54.6085 29.8743 54.6545 29.8743 54.7103C29.8743 54.7662 29.8564 54.8121 29.8203 54.8482C29.7842 54.8843 29.7383 54.9022 29.6824 54.9022H28.2916V56.4487H29.8621C29.9142 56.4487 29.9601 56.4666 30 56.5027C30.0399 56.5387 30.06 56.5806 30.06 56.6284L30.0594 56.6281ZM31.8517 52.9955V54.3142H32.607C33.0146 54.3142 33.3373 54.4221 33.5751 54.6379C33.813 54.8536 33.9317 55.1614 33.9317 55.561C33.9317 55.7289 33.9087 55.8885 33.8628 56.0405C33.8168 56.1924 33.7408 56.3271 33.6348 56.4452C33.5289 56.563 33.3922 56.6572 33.2243 56.7271C33.0564 56.797 32.8505 56.8321 32.607 56.8321H31.7078C31.6398 56.8321 31.5811 56.8081 31.5309 56.7603C31.4808 56.7124 31.4559 56.6543 31.4559 56.5866V52.8461C31.4559 52.7861 31.477 52.7322 31.5188 52.6843C31.561 52.6364 31.6159 52.6125 31.6835 52.6125H33.4759C33.5279 52.6125 33.5716 52.6313 33.6077 52.6693C33.6438 52.7073 33.6617 52.7542 33.6617 52.8101C33.6617 52.8621 33.6438 52.9058 33.6077 52.9419C33.5716 52.978 33.5276 52.9959 33.4759 52.9959H31.8514L31.8517 52.9955ZM32.607 56.4481C32.7947 56.4481 32.9485 56.4222 33.0686 56.3702C33.1886 56.3182 33.2834 56.2514 33.3533 56.1694C33.4232 56.0874 33.4711 55.9935 33.4973 55.8876C33.5231 55.7816 33.5362 55.6746 33.5362 55.5667C33.5362 54.9874 33.2266 54.6976 32.607 54.6976H31.8517V56.4478H32.607V56.4481ZM37.5221 56.6278C37.5221 56.6878 37.5033 56.7366 37.4653 56.7746C37.4273 56.8126 37.3804 56.8314 37.3246 56.8314H35.7001C35.6082 56.8314 35.5284 56.8145 35.4604 56.7804C35.3924 56.7465 35.3586 56.6833 35.3586 56.5914V52.8513C35.3586 52.7874 35.3815 52.7303 35.4275 52.6805C35.4735 52.6304 35.5325 52.6055 35.6043 52.6055H37.2649C37.3207 52.6055 37.3667 52.6256 37.4028 52.6655C37.4388 52.7054 37.4567 52.7533 37.4567 52.8094C37.4567 52.8615 37.4388 52.9042 37.4028 52.9384C37.3667 52.9722 37.3207 52.9895 37.2649 52.9895H35.7544V54.5182H37.1452C37.1972 54.5182 37.2422 54.536 37.2802 54.5721C37.3182 54.6082 37.337 54.6541 37.337 54.71C37.337 54.7659 37.3191 54.8118 37.2831 54.8479C37.247 54.884 37.201 54.9018 37.1452 54.9018H35.7544V56.4484H37.3249C37.3769 56.4484 37.4229 56.4663 37.4628 56.5023C37.5027 56.5384 37.5228 56.5802 37.5228 56.6281L37.5221 56.6278ZM41.6642 56.6878C41.6603 56.7437 41.6402 56.7896 41.6042 56.8257C41.5681 56.8618 41.5221 56.8797 41.4663 56.8797C41.4063 56.8797 41.3574 56.8618 41.3194 56.8257C41.2814 56.7896 41.2626 56.7437 41.2626 56.6878V52.9952H39.8718L39.6739 55.8425C39.6618 55.9945 39.6401 56.1333 39.6078 56.2591C39.5759 56.3849 39.5309 56.494 39.4728 56.586C39.415 56.6779 39.3429 56.7497 39.257 56.8018C39.1712 56.8538 39.0703 56.8797 38.9544 56.8797C38.8986 56.8797 38.8456 56.8787 38.7955 56.8768C38.7453 56.8749 38.7007 56.8669 38.6604 56.8528C38.6205 56.8388 38.5886 56.819 38.5647 56.7928C38.5407 56.767 38.5286 56.7299 38.5286 56.6821C38.5286 56.6102 38.5487 56.5582 38.5886 56.5263C38.6285 56.4944 38.6706 56.4784 38.7144 56.4784C38.7345 56.4784 38.7495 56.4794 38.7594 56.4813C38.7693 56.4832 38.7795 56.4854 38.7894 56.4873C38.7993 56.4893 38.8114 56.4915 38.8255 56.4934C38.8395 56.4953 38.8606 56.4963 38.8883 56.4963C39.1201 56.4963 39.25 56.2945 39.2781 55.8907L39.4999 52.8158C39.5079 52.7399 39.5319 52.6869 39.5718 52.6569C39.6117 52.6269 39.6497 52.6119 39.6857 52.6119H41.4659C41.5218 52.6119 41.5678 52.6307 41.6038 52.6687C41.6399 52.7067 41.6578 52.7536 41.6578 52.8094V56.6875H41.6639L41.6642 56.6878ZM44.4454 54.1942C44.8531 54.1942 45.1758 54.3059 45.4136 54.53C45.6514 54.7537 45.7701 55.0774 45.7701 55.501C45.7701 55.6769 45.7471 55.8448 45.7012 56.0044C45.6552 56.1643 45.5792 56.3051 45.4733 56.427C45.3673 56.549 45.2307 56.6469 45.0628 56.7207C44.8949 56.7947 44.689 56.8314 44.4454 56.8314H43.5462C43.4782 56.8314 43.4195 56.8075 43.3694 56.7596C43.3193 56.7117 43.2944 56.6537 43.2944 56.586V52.7616C43.2944 52.7015 43.3145 52.6508 43.3544 52.6087C43.3943 52.5668 43.4402 52.5458 43.4923 52.5458C43.5481 52.5458 43.5951 52.5678 43.633 52.6119C43.671 52.6559 43.6899 52.7057 43.6899 52.7616V54.1942H44.4451H44.4454ZM43.6902 56.4481H44.4454C44.6331 56.4481 44.787 56.4213 44.907 56.367C45.027 56.3131 45.1218 56.2412 45.1917 56.1512C45.2616 56.0612 45.3095 55.9603 45.3357 55.8486C45.3615 55.7369 45.3746 55.6229 45.3746 55.5071C45.3746 54.8875 45.065 54.5779 44.4454 54.5779H43.6902V56.4481ZM50.8711 56.4481H51.1647C51.2206 56.4481 51.2675 56.4682 51.3055 56.5081C51.3435 56.548 51.3623 56.594 51.3623 56.646V57.611C51.3623 57.6668 51.3435 57.7137 51.3055 57.7517C51.2675 57.7897 51.2206 57.8085 51.1647 57.8085C51.1127 57.8085 51.0658 57.7897 51.024 57.7517C50.9821 57.7137 50.9611 57.6668 50.9611 57.611V56.8318H47.4124C47.3566 56.8318 47.3084 56.8129 47.2685 56.775C47.2286 56.737 47.2085 56.69 47.2085 56.6342V52.7501C47.2085 52.6942 47.2286 52.646 47.2685 52.6061C47.3084 52.5662 47.3563 52.5461 47.4124 52.5461C47.4683 52.5461 47.5152 52.5662 47.5532 52.6061C47.5912 52.646 47.61 52.6939 47.61 52.7501V56.4484H48.839V52.744C48.839 52.692 48.8591 52.646 48.899 52.6061C48.9389 52.5662 48.9868 52.5461 49.043 52.5461C49.0988 52.5461 49.1448 52.5662 49.1809 52.6061C49.2169 52.646 49.2348 52.692 49.2348 52.744V56.4484H50.4756V52.7501C50.4756 52.6942 50.4957 52.646 50.5356 52.6061C50.5755 52.5662 50.6214 52.5461 50.6735 52.5461C50.7293 52.5461 50.7763 52.5662 50.8142 52.6061C50.8522 52.646 50.8711 52.6939 50.8711 52.7501V56.4484V56.4481ZM52.861 56.8918C52.793 56.8918 52.7381 56.8707 52.6963 56.8289C52.6545 56.7871 52.6334 56.7341 52.6334 56.6699V52.7497C52.6334 52.6939 52.6522 52.6457 52.6902 52.6058C52.7282 52.5659 52.7751 52.5458 52.831 52.5458C52.8868 52.5458 52.935 52.5659 52.9749 52.6058C53.0149 52.6457 53.035 52.6936 53.035 52.7497V56.0526L54.8273 52.6719C54.8474 52.632 54.8774 52.601 54.9173 52.579C54.9572 52.5569 54.9994 52.5461 55.0431 52.5461C55.1031 52.5461 55.1539 52.5672 55.196 52.609C55.2381 52.6508 55.2589 52.706 55.2589 52.7737V56.6878C55.2589 56.7437 55.24 56.7915 55.2021 56.8318C55.1641 56.8717 55.1191 56.8918 55.0674 56.8918C55.0115 56.8918 54.9623 56.8717 54.9205 56.8318C54.8787 56.7919 54.8576 56.744 54.8576 56.6878V53.391L53.0714 56.7778C53.0512 56.8139 53.0225 56.8417 52.9845 56.8618C52.9465 56.8819 52.9057 56.8918 52.8616 56.8918H52.861ZM57.2846 54.5242H57.7161C57.9239 54.2165 58.1388 53.9027 58.3606 53.5832C58.5825 53.2634 58.7973 52.9499 59.0051 52.6422C59.0571 52.5783 59.113 52.5461 59.173 52.5461C59.2289 52.5461 59.2729 52.571 59.3048 52.6211C59.3367 52.6712 59.3527 52.7201 59.3527 52.7679C59.3527 52.7999 59.3466 52.8299 59.3348 52.858L58.0341 54.7221L59.3288 56.5863C59.3447 56.6141 59.3527 56.6441 59.3527 56.6763C59.3527 56.7242 59.3367 56.7721 59.3048 56.8203C59.2729 56.8682 59.2289 56.8921 59.173 56.8921C59.1012 56.8921 59.045 56.8621 59.0051 56.8021L57.7043 54.9079H57.2846V56.6881C57.2846 56.744 57.2657 56.7919 57.2277 56.8321C57.1898 56.872 57.1428 56.8921 57.087 56.8921C57.0311 56.8921 56.9842 56.872 56.9462 56.8321C56.9082 56.7922 56.8894 56.7443 56.8894 56.6881V52.744C56.8894 52.692 56.9082 52.646 56.9462 52.6061C56.9842 52.5662 57.0311 52.5461 57.087 52.5461C57.1428 52.5461 57.1898 52.5662 57.2277 52.6061C57.2657 52.646 57.2846 52.692 57.2846 52.744V54.5242ZM10.2785 46.7496H67.8072V47.4643H10.2785V46.7496ZM34.4973 35.1407L35.9631 39.5898H32.9454L34.4629 35.1407H34.4973ZM32.7902 44.2975L32.9109 42.7455L31.8246 42.6593L32.3765 41.228H36.5154L37.119 42.7627L36.1706 42.8661V44.2975H40.861L40.9645 42.6076L39.7917 42.5559L36.3947 33.0888H32.9457L29.5314 42.418L28.3242 42.5042L28.4276 44.2975H32.7905H32.7902ZM41.7053 36.4858L41.895 35.0545H43.6883V42.4007L42.3948 42.5042L42.5155 44.2975H47.551L47.6716 42.5042L46.361 42.418V35.0545H48.1888L48.3439 36.4858H50.2579V32.9679L47.9988 33.0885H42.1701L39.9283 32.9679L39.8077 36.4858H41.7047H41.7053ZM28.065 67.395H50.7351V67.6765H28.065V67.395ZM36.6239 73.6077C36.6239 73.6731 36.5996 73.7287 36.5514 73.7737C36.5029 73.819 36.4429 73.8417 36.3711 73.8417H34.8312C34.7533 73.8417 34.6901 73.8174 34.6416 73.7692C34.5934 73.7207 34.5692 73.6607 34.5692 73.5889C34.5692 73.5576 34.5708 73.5241 34.5739 73.4883C34.5771 73.4526 34.5864 73.4187 34.602 73.3878C34.6895 73.1911 34.805 73.0149 34.9484 72.8588C35.092 72.7027 35.2433 72.5498 35.4023 72.4001C35.4741 72.3315 35.5514 72.2613 35.634 72.1895C35.7167 72.1176 35.7924 72.042 35.861 71.9625C35.9296 71.883 35.9864 71.7987 36.0318 71.7097C36.0771 71.6206 36.0998 71.5265 36.0998 71.4266C36.0998 71.2829 36.057 71.1613 35.9711 71.0614C35.8853 70.9615 35.7582 70.9117 35.5897 70.9117C35.5054 70.9117 35.4297 70.9187 35.3627 70.9327C35.2957 70.9468 35.2309 70.9663 35.1683 70.9911C35.1153 71.0161 35.0646 71.0441 35.016 71.0754C34.9678 71.1067 34.9171 71.1223 34.8641 71.1223C34.8015 71.1223 34.7447 71.1013 34.6933 71.0591C34.6419 71.017 34.6161 70.9615 34.6161 70.8928C34.6161 70.821 34.6506 70.7578 34.7192 70.7032C34.7878 70.6486 34.8727 70.6027 34.9742 70.5653C35.0757 70.528 35.1824 70.4999 35.2947 70.4811C35.4071 70.4622 35.507 70.453 35.5944 70.453C35.7537 70.453 35.8955 70.4772 36.0203 70.5254C36.1451 70.5736 36.2511 70.6394 36.3385 70.7221C36.426 70.8047 36.4924 70.9024 36.5374 71.0145C36.5827 71.1268 36.6051 71.2468 36.6051 71.3748C36.6051 71.5715 36.5715 71.7391 36.5045 71.8779C36.4375 72.0168 36.3526 72.1409 36.2495 72.2501C36.162 72.3436 36.0701 72.4359 35.9733 72.5262C35.8766 72.6166 35.7815 72.7072 35.688 72.7975C35.5945 72.8879 35.5054 72.9801 35.4211 73.0737C35.3369 73.1672 35.265 73.2671 35.2057 73.3731H36.3711C36.4429 73.3731 36.5029 73.3957 36.5514 73.4411C36.6 73.4864 36.6239 73.5416 36.6239 73.6074V73.6077ZM38.0329 70.9117C37.8519 70.9117 37.7232 70.9672 37.6466 71.078C37.57 71.1887 37.532 71.333 37.532 71.5108V72.8869C37.532 73.0491 37.5742 73.1793 37.6584 73.2776C37.7427 73.3759 37.8675 73.4251 38.0329 73.4251C38.195 73.4251 38.3192 73.3759 38.4051 73.2776C38.4909 73.1793 38.5337 73.0491 38.5337 72.8869V71.5108C38.5337 71.333 38.4948 71.1887 38.4166 71.078C38.3387 70.9672 38.2107 70.9117 38.0329 70.9117ZM38.0329 70.453C38.2075 70.453 38.3591 70.4817 38.4868 70.5395C38.6148 70.5973 38.7201 70.6751 38.8028 70.7735C38.8855 70.8718 38.9464 70.988 38.9854 71.122C39.0243 71.2561 39.0438 71.3981 39.0438 71.5479V72.8866C39.0438 73.0271 39.0221 73.1583 38.9784 73.2799C38.9346 73.4015 38.8698 73.5078 38.784 73.5981C38.6981 73.6885 38.5921 73.7596 38.4657 73.811C38.3393 73.8624 38.195 73.8883 38.0329 73.8883C37.8675 73.8883 37.7223 73.8624 37.5975 73.811C37.4727 73.7596 37.3673 73.6885 37.2815 73.5981C37.1956 73.5078 37.1308 73.4015 37.0871 73.2799C37.0433 73.1583 37.0216 73.0271 37.0216 72.8866V71.5479C37.0216 71.3981 37.0411 71.2561 37.08 71.122C37.119 70.988 37.18 70.8715 37.2626 70.7735C37.3453 70.6751 37.4497 70.5973 37.5761 70.5395C37.7025 70.4817 37.8544 70.453 38.0326 70.453H38.0329ZM40.4949 71.1409L40.0222 71.4406C39.9816 71.4655 39.9417 71.4875 39.9028 71.506C39.8638 71.5249 39.8223 71.5341 39.7786 71.5341C39.7256 71.5341 39.6739 71.5163 39.6241 71.4802C39.574 71.4444 39.5491 71.3905 39.5491 71.3187C39.5491 71.2219 39.5865 71.1517 39.6615 71.108L40.5881 70.5417C40.613 70.5261 40.6373 70.5152 40.6606 70.5088C40.6839 70.5024 40.7081 70.4996 40.733 70.4996C40.8109 70.4996 40.8767 70.5245 40.9297 70.5746C40.9827 70.6244 41.0092 70.6854 41.0092 70.7572V73.6406C41.0092 73.7031 40.9843 73.7593 40.9341 73.8091C40.8843 73.8592 40.8234 73.8841 40.7516 73.8841C40.6797 73.8841 40.6188 73.8592 40.569 73.8091C40.5189 73.7593 40.494 73.7031 40.494 73.6406V71.1412L40.4949 71.1409ZM42.9008 70.9113C42.7198 70.9113 42.5911 70.9669 42.5145 71.0777C42.4379 71.1884 42.3999 71.3327 42.3999 71.5105V72.8866C42.3999 73.0488 42.4421 73.179 42.5263 73.2773C42.6106 73.3756 42.7354 73.4248 42.9008 73.4248C43.0629 73.4248 43.1871 73.3756 43.273 73.2773C43.3588 73.179 43.4016 73.0488 43.4016 72.8866V71.5105C43.4016 71.3327 43.3627 71.1884 43.2845 71.0777C43.2066 70.9669 43.0786 70.9113 42.9008 70.9113ZM42.9008 70.4527C43.0754 70.4527 43.227 70.4814 43.3547 70.5392C43.4827 70.5969 43.588 70.6748 43.6707 70.7731C43.7534 70.8715 43.8143 70.9876 43.8533 71.1217C43.8922 71.2558 43.9117 71.3978 43.9117 71.5475V72.8863C43.9117 73.0267 43.89 73.1579 43.8463 73.2795C43.8025 73.4012 43.7377 73.5075 43.6519 73.5978C43.566 73.6881 43.46 73.7593 43.3336 73.8107C43.2072 73.8621 43.0629 73.888 42.9008 73.888C42.7354 73.888 42.5902 73.8621 42.4654 73.8107C42.3406 73.7593 42.2352 73.6881 42.1494 73.5978C42.0635 73.5075 41.9987 73.4012 41.955 73.2795C41.9112 73.1579 41.8895 73.0267 41.8895 72.8863V71.5475C41.8895 71.3978 41.909 71.2558 41.9479 71.1217C41.9869 70.9876 42.0479 70.8711 42.1305 70.7731C42.2132 70.6748 42.3176 70.5969 42.444 70.5392C42.5704 70.4814 42.7223 70.4527 42.9005 70.4527H42.9008ZM34.3645 21.7982C38.1497 22.5659 42.55 22.5244 46.1959 21.7934C46.1956 21.9258 46.1975 21.9444 46.1972 22.0768C42.3658 22.7615 37.6712 22.7095 34.3658 22.0248L34.3645 21.7985V21.7982ZM34.3677 20.1006C37.8056 20.6765 41.9269 20.7643 46.1979 20.0895C46.1979 20.5526 46.1928 21.0356 46.1928 21.4991C42.2391 22.2933 37.5687 22.1815 34.369 21.4866L34.3677 20.1006ZM46.9324 15.4191C47.2557 15.4191 47.5181 15.6745 47.5181 15.9896C47.5181 16.3046 47.256 16.5603 46.9324 16.5603C46.8433 16.5603 46.7594 16.5411 46.6837 16.5064L46.1995 19.6748C42.1433 20.4093 37.9119 20.3534 34.3719 19.738C34.2065 18.6725 34.1264 17.621 33.9611 16.5555L35.966 17.6673L36.8595 15.4836L38.5864 17.6076L40.2341 14.7092L42.0009 17.5479L43.7677 15.4833L44.6213 17.6868L46.6751 16.5019C46.4807 16.409 46.3469 16.2146 46.3469 15.9892C46.3469 15.6742 46.609 15.4188 46.9327 15.4188L46.9324 15.4191ZM33.7312 15.4191C34.0546 15.4191 34.317 15.6745 34.317 15.9896C34.317 16.3046 34.0549 16.5603 33.7312 16.5603C33.4079 16.5603 33.1455 16.3049 33.1455 15.9896C33.1455 15.6745 33.4076 15.4191 33.7312 15.4191ZM40.2622 16.6596L39.6768 17.8307L40.312 18.9125L40.9077 17.8307L40.2625 16.6596H40.2622ZM36.7487 14.2282C37.0721 14.2282 37.3344 14.4835 37.3344 14.7986C37.3344 15.1137 37.0724 15.3693 36.7487 15.3693C36.4253 15.3693 36.163 15.114 36.163 14.7986C36.163 14.4835 36.425 14.2282 36.7487 14.2282ZM40.2325 13.1062C40.6603 13.1062 41.0066 13.4439 41.0066 13.8604C41.0066 14.277 40.6599 14.6147 40.2325 14.6147C39.8048 14.6147 39.4585 14.277 39.4585 13.8604C39.4585 13.4439 39.8051 13.1062 40.2325 13.1062ZM43.776 14.248C44.0994 14.248 44.3618 14.5033 44.3618 14.8184C44.3618 15.1334 44.0997 15.3891 43.776 15.3891C43.4527 15.3891 43.1903 15.1338 43.1903 14.8184C43.1903 14.5033 43.4524 14.248 43.776 14.248ZM0.853559 39.0653C1.32503 39.0653 1.70712 39.4328 1.70712 39.886C1.70712 40.3393 1.32503 40.7067 0.853559 40.7067C0.382091 40.7067 0 40.3393 0 39.886C0 39.4328 0.382091 39.0653 0.853559 39.0653ZM79.1467 38.9064C79.6182 38.9064 80.0003 39.2738 80.0003 39.7271C80.0003 40.1803 79.6182 40.5477 79.1467 40.5477C78.6753 40.5477 78.2932 40.1803 78.2932 39.7271C78.2932 39.2738 78.6753 38.9064 79.1467 38.9064Z" fill="#171717"/>
</svg>
