<svg width="50" height="50" viewBox="0 0 50 50" fill="none" xmlns="http://www.w3.org/2000/svg">
<path d="M29.2035 39.6021L26.4812 45.4373C26.4062 45.5977 26.3752 45.7752 26.3914 45.9515C26.4075 46.1278 26.4702 46.2966 26.573 46.4408C26.6758 46.585 26.8151 46.6993 26.9765 46.772C27.138 46.8448 27.3159 46.8734 27.4921 46.8549L31.2054 46.4669L33.2945 49.5598C33.3936 49.7064 33.53 49.8242 33.6895 49.901C33.8491 49.9778 34.0262 50.0109 34.2027 49.9969C34.3793 49.9829 34.5489 49.9223 34.6944 49.8214C34.8399 49.7204 34.9559 49.5826 35.0307 49.4222L37.2535 44.6581C35.5928 44.5666 33.9828 44.0546 32.5746 43.1701C31.1664 42.2857 30.0063 41.0578 29.2035 39.6021ZM49.1056 45.4373L46.3841 39.6021C45.5812 41.058 44.421 42.2858 43.0127 43.1703C41.6043 44.0548 39.9941 44.5667 38.3333 44.6581L40.5561 49.4222C40.6309 49.5826 40.7469 49.7204 40.8924 49.8214C41.0378 49.9223 41.2075 49.9829 41.384 49.9969C41.5606 50.0109 41.7377 49.9778 41.8973 49.901C42.0568 49.8242 42.1931 49.7064 42.2923 49.5598L44.3814 46.4669L48.0955 46.8549C48.2716 46.8732 48.4494 46.8445 48.6108 46.7717C48.7721 46.6989 48.9113 46.5846 49.014 46.4404C49.1167 46.2963 49.1793 46.1275 49.1954 45.9512C49.2115 45.775 49.1805 45.5977 49.1056 45.4373ZM45.5981 34.8853C45.5981 33.3426 45.1404 31.8345 44.2828 30.5518C43.4253 29.2691 42.2064 28.2693 40.7804 27.679C39.3543 27.0886 37.7851 26.9341 36.2712 27.2351C34.7574 27.5361 33.3668 28.2789 32.2753 29.3698C31.1839 30.4606 30.4406 31.8505 30.1394 33.3635C29.8383 34.8766 29.9929 36.4449 30.5836 37.8702C31.1742 39.2955 32.1745 40.5137 33.458 41.3708C34.7414 42.2278 36.2502 42.6853 37.7938 42.6853C39.8629 42.683 41.8466 41.8604 43.3097 40.3982C44.7728 38.9359 45.5958 36.9532 45.5981 34.8853ZM42.5028 33.7069L37.7001 38.5069C37.5125 38.6942 37.2582 38.7995 36.9929 38.7995C36.7277 38.7995 36.4734 38.6942 36.2858 38.5069L33.084 35.3069C32.9017 35.1183 32.8008 34.8657 32.803 34.6035C32.8052 34.3413 32.9103 34.0905 33.0958 33.905C33.2812 33.7196 33.5322 33.6143 33.7945 33.612C34.0568 33.6096 34.3096 33.7103 34.4984 33.8925L36.9933 36.3853L41.0884 32.2924C41.1807 32.197 41.2912 32.1208 41.4132 32.0684C41.5353 32.0161 41.6666 31.9885 41.7995 31.9874C41.9323 31.9863 42.0641 32.0116 42.187 32.0619C42.31 32.1122 42.4217 32.1865 42.5156 32.2805C42.6095 32.3744 42.6838 32.486 42.734 32.609C42.7843 32.7319 42.8096 32.8636 42.8084 32.9963C42.8072 33.1291 42.7796 33.2603 42.7271 33.3823C42.6746 33.5043 42.5984 33.6146 42.5028 33.7069Z" fill="#171717"/>
<path d="M49.2903 5.64322C48.5032 5.40357 47.7872 4.97407 47.2054 4.39258C46.6236 3.81108 46.1938 3.09546 45.9541 2.3088C45.891 2.10435 45.7641 1.92547 45.5918 1.79841C45.4196 1.67134 45.2112 1.60278 44.9971 1.60278C44.7831 1.60278 44.5746 1.67134 44.4024 1.79841C44.2302 1.92547 44.1033 2.10435 44.0402 2.3088C43.8004 3.09546 43.3707 3.81108 42.7889 4.39258C42.2071 4.97407 41.491 5.40357 40.704 5.64322C40.4991 5.70603 40.3198 5.83287 40.1924 6.0051C40.065 6.17732 39.9963 6.38585 39.9963 6.60003C39.9963 6.81421 40.065 7.02273 40.1924 7.19496C40.3198 7.36719 40.4991 7.49403 40.704 7.55684C41.491 7.79648 42.2071 8.22599 42.7889 8.80748C43.3707 9.38897 43.8004 10.1046 44.0402 10.8913C44.1033 11.0957 44.2302 11.2746 44.4024 11.4017C44.5746 11.5287 44.7831 11.5973 44.9971 11.5973C45.2112 11.5973 45.4196 11.5287 45.5918 11.4017C45.7641 11.2746 45.891 11.0957 45.9541 10.8913C46.1938 10.1046 46.6236 9.38897 47.2054 8.80748C47.7872 8.22599 48.5032 7.79648 49.2903 7.55684C49.4956 7.49448 49.6754 7.36782 49.8032 7.19554C49.931 7.02326 49.9999 6.81448 49.9999 6.60003C49.9999 6.38557 49.931 6.1768 49.8032 6.00452C49.6754 5.83224 49.4956 5.70557 49.2903 5.64322ZM40.4854 14.4433C39.6984 14.2036 38.9823 13.7741 38.4005 13.1926C37.8187 12.6111 37.389 11.8955 37.1492 11.1089C37.0862 10.9044 36.9592 10.7255 36.787 10.5985C36.6148 10.4714 36.4063 10.4028 36.1923 10.4028C35.9782 10.4028 35.7698 10.4714 35.5976 10.5985C35.4253 10.7255 35.2984 10.9044 35.2353 11.1089C34.9956 11.8955 34.5658 12.6111 33.984 13.1926C33.4022 13.7741 32.6862 14.2036 31.8991 14.4433C31.6942 14.5061 31.5149 14.6329 31.3875 14.8052C31.2602 14.9774 31.1914 15.1859 31.1914 15.4001C31.1914 15.6143 31.2602 15.8228 31.3875 15.995C31.5149 16.1672 31.6942 16.2941 31.8991 16.3569C32.6862 16.5965 33.4022 17.026 33.984 17.6075C34.5658 18.189 34.9956 18.9047 35.2353 19.6913C35.2984 19.8958 35.4253 20.0746 35.5976 20.2017C35.7698 20.3288 35.9782 20.3973 36.1923 20.3973C36.4063 20.3973 36.6148 20.3288 36.787 20.2017C36.9592 20.0746 37.0862 19.8958 37.1492 19.6913C37.389 18.9047 37.8187 18.189 38.4005 17.6075C38.9823 17.026 39.6984 16.5965 40.4854 16.3569C40.6907 16.2945 40.8705 16.1679 40.9983 15.9956C41.1261 15.8233 41.1951 15.6145 41.1951 15.4001C41.1951 15.1856 41.1261 14.9769 40.9983 14.8046C40.8705 14.6323 40.6907 14.5056 40.4854 14.4433Z" fill="#FFD93F"/>
<path d="M25.7871 38.7994H23.3858C23.1204 38.7994 22.8659 38.6941 22.6783 38.5065C22.4907 38.319 22.3853 38.0646 22.3853 37.7994C22.3853 37.5342 22.4907 37.2798 22.6783 37.0923C22.8659 36.9048 23.1204 36.7994 23.3858 36.7994H25.7871C26.0525 36.7994 26.307 36.9048 26.4946 37.0923C26.6823 37.2798 26.7877 37.5342 26.7877 37.7994C26.7877 38.0646 26.6823 38.319 26.4946 38.5065C26.307 38.6941 26.0525 38.7994 25.7871 38.7994Z" fill="#FFD93F"/>
<path d="M21.0319 19.9116C21.1678 19.6838 21.2075 19.4113 21.1424 19.1541C21.0772 18.897 20.9125 18.6762 20.6845 18.5404C20.4565 18.4046 20.1839 18.3649 19.9266 18.4301C19.6693 18.4952 19.4484 18.6598 19.3126 18.8876C19.1172 19.2324 18.8335 19.519 18.4907 19.7179C18.1478 19.9169 17.7581 20.0209 17.3617 20.0195C16.9652 20.018 16.5763 19.911 16.2349 19.7096C15.8935 19.5081 15.612 19.2195 15.4192 18.8732C15.3514 18.7588 15.2615 18.659 15.1546 18.5797C15.0478 18.5004 14.9262 18.4432 14.7969 18.4115C14.6677 18.3797 14.5334 18.3741 14.402 18.3948C14.2705 18.4156 14.1445 18.4624 14.0314 18.5324C13.9182 18.6024 13.8202 18.6943 13.743 18.8027C13.6658 18.911 13.6111 19.0337 13.5819 19.1635C13.5528 19.2933 13.5498 19.4276 13.5732 19.5585C13.5966 19.6894 13.6459 19.8144 13.7183 19.926C14.0925 20.5639 14.6275 21.0926 15.2698 21.4595C15.9121 21.8264 16.6394 22.0187 17.3792 22.0173C18.1191 22.0158 18.8456 21.8206 19.4865 21.4512C20.1273 21.0818 20.6602 20.551 21.0319 19.9116Z" fill="#171717"/>
<path d="M29.7564 27.1844C28.1331 25.4586 25.9594 24.3512 23.6084 24.0524C25.0779 23.0429 26.2798 21.6913 27.1104 20.1143C27.9411 18.5372 28.3756 16.782 28.3765 14.9998L28.3885 5.7999C28.3868 4.26219 27.7749 2.78795 26.687 1.70062C25.599 0.613298 24.124 0.00169398 22.5854 0H12.18C10.6414 0.00169398 9.16636 0.613298 8.07844 1.70062C6.99052 2.78795 6.37858 4.26219 6.37689 5.7999L6.36488 14.9998C6.36566 16.8065 6.81186 18.5853 7.66401 20.1787C8.51617 21.7721 9.74802 23.1311 11.2507 24.1356C1.08609 25.6196 -1.68417 37.925 0.918806 49.2232C0.969543 49.4438 1.09368 49.6407 1.27092 49.7817C1.44816 49.9226 1.66801 49.9993 1.89452 49.9992H24.1863C24.4517 49.9992 24.7061 49.8938 24.8938 49.7063C25.0814 49.5188 25.1868 49.2644 25.1868 48.9992C25.1868 48.734 25.0814 48.4796 24.8938 48.2921C24.7061 48.1046 24.4517 47.9992 24.1863 47.9992H23.3394L20.4523 37.8986L22.6799 33.4467C22.7493 33.3078 22.7854 33.1547 22.7854 32.9995C22.7854 32.8442 22.7493 32.6911 22.6799 32.5523L21.2736 29.7419C21.9403 29.1979 21.9651 29.0523 24.5377 26.2604C25.9874 26.7053 27.2994 27.513 28.3493 28.6067C28.538 28.7932 28.7931 28.8972 29.0585 28.8957C29.3239 28.8942 29.5778 28.7874 29.7644 28.5987C29.951 28.4101 30.055 28.1551 30.0535 27.8899C30.052 27.6246 29.9452 27.3709 29.7564 27.1844ZM26.3867 5.7999V11.8902C25.3655 11.6614 24.4526 11.0922 23.798 10.2762C23.1435 9.46013 22.7861 8.4458 22.7847 7.39988V2.00477C23.7569 2.05713 24.672 2.47965 25.342 3.1855C26.0121 3.89135 26.3854 4.82691 26.3867 5.7999ZM8.37714 5.7999C8.3782 4.79242 8.77911 3.82651 9.4919 3.11411C10.2047 2.40172 11.1711 2.00103 12.1792 1.99997H20.7837V8.19987C20.7826 9.20735 20.3817 10.1733 19.6689 10.8857C18.9562 11.5981 17.9897 11.9987 16.9817 11.9998H8.37714V5.7999ZM8.36594 14.9998V13.9998H16.9825C17.9884 13.9984 18.9766 13.7356 19.8502 13.2371C20.7238 12.7387 21.4526 12.0217 21.9651 11.1566C22.4752 11.8907 23.1291 12.5136 23.8872 12.9876C24.6453 13.4616 25.4918 13.7768 26.3754 13.9142V14.9998C26.3754 17.3867 25.4267 19.6758 23.738 21.3636C22.0493 23.0514 19.7589 23.9996 17.3707 23.9996C14.9825 23.9996 12.6921 23.0514 11.0034 21.3636C9.31465 19.6758 8.36594 17.3867 8.36594 14.9998ZM10.4911 26.326C11.8438 27.6739 13.2573 29.1003 13.6343 29.4563L12.0847 32.5523C12.0153 32.6911 11.9792 32.8442 11.9792 32.9995C11.9792 33.1547 12.0153 33.3078 12.0847 33.4467L14.3123 37.8986L11.4252 47.9992H9.16636V40.1993C9.16636 39.9341 9.06095 39.6798 8.87331 39.4922C8.68568 39.3047 8.43119 39.1994 8.16583 39.1994H2.07061C2.51645 33.4915 4.97215 27.7459 10.4911 26.326ZM18.629 38.7994L19.7928 42.8713L15.2936 41.7465L16.1356 38.7994H18.629ZM1.98657 41.1993H7.1653V47.9992H2.69895C2.22555 45.7635 1.9868 43.4845 1.98657 41.1993ZM13.5055 47.9992L14.7429 43.6713L20.4275 45.0913L21.2591 47.9992H13.5055ZM20.666 32.9995L18.765 36.7994H15.9996L14.0986 32.9995L15.3136 30.5707C16.6497 31.1467 18.1531 31.2018 19.5278 30.7251L20.666 32.9995ZM20.4307 27.8019C20.0849 28.1829 19.6652 28.4897 19.1971 28.7037C18.729 28.9176 18.2224 29.0343 17.7078 29.0465C17.1932 29.0588 16.6816 28.9664 16.2038 28.775C15.7261 28.5836 15.2922 28.2972 14.9286 27.9331L12.9972 26.0028C13.5567 25.9972 19.6343 26.0004 22.07 25.9996L20.4307 27.8019Z" fill="#171717"/>
</svg>
