<svg width="60" height="32" viewBox="0 0 60 32" fill="none" xmlns="http://www.w3.org/2000/svg">
<rect x="10" y="2" width="40" height="15" fill="#FFD93F"/>
<path d="M54.6666 6.55551C53.7332 6.55551 52.8133 6.8177 52 7.2897V6.55551C52 2.20267 49.76 0 45.3334 0H14.6666C10.24 0 8 2.20267 8 6.55551V7.2897C7.19121 6.82103 6.27207 6.56797 5.33337 6.55551C2.38663 6.55551 0 8.90249 0 11.8V22.2889C0 25.1865 2.38663 27.5333 5.33337 27.5333H8V30.1555C8 30.8767 8.6 31.4667 9.33337 31.4667C10.0667 31.4667 10.6667 30.8767 10.6667 30.1555V27.5333H49.3334V30.1555C49.3334 30.8767 49.9334 31.4667 50.6668 31.4667C51.4 31.4667 52 30.8767 52 30.1555V27.5333H54.6534C57.6 27.5333 60 25.1865 60 22.2889V11.8C60 8.90249 57.6134 6.55551 54.6666 6.55551ZM10.6666 6.55551C10.6666 3.658 11.7066 2.62218 14.6666 2.62218H45.3332C48.2799 2.62218 49.3332 3.658 49.3332 6.55551V15.7333H10.6666V6.55551ZM57.3334 22.2889C57.3334 23.7442 56.12 24.911 54.6534 24.911H5.33337C3.86675 24.911 2.66675 23.731 2.66675 22.2889V11.8C2.66675 10.3578 3.86675 9.17782 5.33337 9.17782C6.8 9.17782 8 10.3578 8 11.8V18.3555H52V11.8C52 10.3578 53.2 9.17782 54.6666 9.17782C56.1333 9.17782 57.3332 10.3578 57.3332 11.8L57.3334 22.2889Z" fill="#171717"/>
</svg>
