<svg width="50" height="50" viewBox="0 0 50 50" fill="none" xmlns="http://www.w3.org/2000/svg">
<path d="M44.7664 37.1759C43.9008 36.532 42.6774 36.7118 42.0335 37.5771C41.6777 38.0553 41.302 38.5182 40.9073 38.9648C40.1929 39.7729 40.2688 41.0073 41.0769 41.7218C41.4334 42.0378 41.8934 42.2121 42.3698 42.2116C42.91 42.2116 43.4479 41.9887 43.8338 41.552C44.3013 41.0232 44.7463 40.4749 45.1676 39.9086C45.8115 39.0433 45.6319 37.8196 44.7664 37.1759ZM48.0328 28.0162C46.9794 27.7868 45.9383 28.4553 45.7089 29.5092C45.5822 30.0909 45.4308 30.667 45.2552 31.2358C44.9368 32.2665 45.5141 33.3601 46.5447 33.6785C46.7368 33.7378 46.9309 33.766 47.1219 33.766C47.9559 33.766 48.7282 33.2275 48.9874 32.3889C49.1958 31.7139 49.3754 31.0303 49.5258 30.34C49.7552 29.2861 49.0868 28.2457 48.0328 28.0162ZM35.3653 43.4311C34.8449 43.7214 34.3126 43.9896 33.7696 44.2351C32.7865 44.679 32.3495 45.8358 32.7934 46.8189C33.1196 47.5412 33.8304 47.9687 34.5746 47.9687C34.8433 47.9687 35.1165 47.9129 35.3773 47.7951C36.0212 47.5041 36.6526 47.186 37.2696 46.8416C38.2115 46.3158 38.5487 45.126 38.0227 44.1842C37.497 43.2425 36.3072 42.9053 35.3653 43.4311ZM23.047 9.375V24.191L15.885 31.3529C15.1223 32.1157 15.1223 33.3523 15.885 34.115C16.0662 34.2967 16.2815 34.4408 16.5185 34.5389C16.7555 34.6371 17.0096 34.6875 17.2662 34.6871C17.5227 34.6874 17.7768 34.637 18.0138 34.5389C18.2508 34.4407 18.4661 34.2967 18.6473 34.115L26.3813 26.3811C26.7475 26.0148 26.9533 25.518 26.9533 25V9.375C26.9533 8.29629 26.0789 7.42188 25.0001 7.42188C23.9214 7.42188 23.047 8.29629 23.047 9.375Z" fill="#FFD93F"/>
<path d="M48.0469 4.19922C46.9682 4.19922 46.0938 5.07363 46.0938 6.15234V11.5758C41.5477 4.44609 33.6085 0 25 0C18.3223 0 12.0442 2.60049 7.32227 7.32227C2.60049 12.0442 0 18.3223 0 25C0 31.6777 2.60049 37.9558 7.32227 42.6777C12.0442 47.3995 18.3223 50 25 50C25.0165 50 25.0324 49.998 25.0488 49.9976C25.0652 49.998 25.0812 50 25.0977 50C25.8016 50 26.5124 49.9703 27.2106 49.9119C28.2855 49.8219 29.084 48.8775 28.994 47.8026C28.9039 46.7277 27.9608 45.9289 26.8847 46.0193C26.2944 46.0687 25.6933 46.0938 25.0977 46.0938C25.0812 46.0938 25.0652 46.0958 25.0488 46.0962C25.0324 46.0958 25.0165 46.0938 25 46.0938C13.3688 46.0938 3.90625 36.6312 3.90625 25C3.90625 13.3688 13.3688 3.90625 25 3.90625C32.4959 3.90625 39.3903 7.90166 43.1578 14.2578H37.7874C36.7087 14.2578 35.8343 15.1322 35.8343 16.2109C35.8343 17.2896 36.7087 18.1641 37.7874 18.1641H43.75C44.8968 18.1654 46.0215 17.8493 46.9997 17.2507C47.0601 17.2163 47.1187 17.1788 47.1751 17.1382C48.8749 16.0199 50 14.0964 50 11.9141V6.15234C50 5.07363 49.1256 4.19922 48.0469 4.19922Z" fill="#171717"/>
</svg>
