<svg width="51" height="69" viewBox="0 0 51 69" fill="none" xmlns="http://www.w3.org/2000/svg">
<path d="M50.8913 31.2531C51.1619 29.6698 50.922 28.0462 50.2319 26.6291C50.9275 25.201 51.1588 23.5793 50.8913 22.0048C50.6211 20.4216 49.8585 18.9807 48.7405 17.8927C48.9216 16.305 48.6018 14.6994 47.8286 13.3146C47.0538 11.9307 45.8675 10.8419 44.4459 10.2098C44.0901 8.65413 43.2581 7.25845 42.0734 6.22988C40.8868 5.2034 39.4114 4.59947 37.8661 4.50775C37.0228 3.18184 35.7814 2.15579 34.3181 1.60605C32.8633 1.06051 31.277 1.01414 29.7947 1.47384C28.5634 0.525754 27.0568 0 25.4997 0C23.9433 0 22.4366 0.525754 21.2052 1.47384C19.7228 1.01415 18.1363 1.06051 16.6814 1.60605C15.2276 2.15426 13.9836 3.17179 13.1339 4.50775C11.6005 4.59945 10.1192 5.1965 8.92665 6.22988C7.74181 7.25855 6.90976 8.65443 6.55405 10.2103C5.13232 10.8422 3.94584 11.9308 3.17084 13.3146C2.3981 14.6996 2.07853 16.3051 2.25958 17.8927C1.14161 18.9807 0.379004 20.4216 0.108801 22.0048C-0.161918 23.5884 0.0779613 25.2122 0.768178 26.6293C0.0779613 28.0462 -0.161918 29.67 0.108801 31.2531C0.378543 32.8273 1.13283 34.2697 2.25958 35.3658C2.07859 36.9533 2.39816 38.5587 3.17084 39.9437C3.94595 41.3274 5.13239 42.416 6.55405 43.0481C6.79424 44.0973 7.25241 45.0799 7.8968 45.9281L2.22629 58.1847C2.06944 58.5236 2.00819 58.9012 2.04956 59.2744C2.09093 59.6475 2.23325 60.0011 2.46021 60.2946C2.68717 60.5881 2.98959 60.8095 3.33281 60.9337C3.67603 61.0578 4.04617 61.0796 4.40082 60.9965L12.9424 58.9958L16.8014 67.1164C16.9608 67.4519 17.2081 67.7346 17.5152 67.9322C17.8223 68.1299 18.177 68.2347 18.5388 68.2347H18.5489C18.9125 68.2328 19.2683 68.1252 19.5754 67.9241C19.8825 67.723 20.1286 67.4366 20.2853 67.0978L25.4997 55.827L30.7146 67.0978C30.8713 67.4366 31.1173 67.7229 31.4243 67.924C31.7313 68.1251 32.087 68.2328 32.4505 68.2347H32.4611C32.8229 68.2346 33.1775 68.1298 33.4846 67.9321C33.7917 67.7345 34.039 67.452 34.1986 67.1166L38.0576 58.9958L46.5987 60.9965C46.9534 61.0796 47.3235 61.0578 47.6667 60.9336C48.0099 60.8095 48.3123 60.588 48.5392 60.2945C48.7662 60.001 48.9085 59.6475 48.9499 59.2744C48.9912 58.9012 48.93 58.5236 48.7731 58.1847L43.1026 45.9279C43.747 45.0798 44.2052 44.0971 44.4454 43.048C45.8563 42.4208 47.0504 41.3364 47.8287 39.9438C48.6071 38.5513 48.9193 36.9411 48.7405 35.3657C49.858 34.2777 50.6211 32.8369 50.8913 31.2531ZM46.4264 27.8593C46.7119 28.2372 46.9176 28.6727 47.03 29.1377C47.1425 29.6028 47.1592 30.087 47.0791 30.5591C46.9979 31.031 46.8218 31.48 46.5622 31.8772C46.3026 32.2744 45.9653 32.611 45.572 32.8653C45.206 33.1016 44.9269 33.4575 44.7792 33.8764C44.6315 34.2953 44.6237 34.7532 44.7569 35.1772C44.9002 35.6332 44.9493 36.115 44.9009 36.5918C44.8526 37.0685 44.7079 37.5294 44.4762 37.9448C44.2438 38.3596 43.9296 38.7194 43.5541 39.0009C43.1786 39.2825 42.75 39.4795 42.2962 39.5793C41.874 39.6722 41.4939 39.9082 41.2165 40.2498C40.939 40.5913 40.7801 41.0189 40.7649 41.4644C40.7483 41.9434 40.6348 42.4134 40.4314 42.8442C40.2281 43.275 39.9396 43.6569 39.5844 43.9654C39.2287 44.2732 38.8144 44.5004 38.3683 44.6324C37.9222 44.7644 37.4542 44.7982 36.9947 44.7317C36.5672 44.6696 36.1319 44.7569 35.758 44.9798C35.3841 45.2027 35.0931 45.5484 34.9314 45.9618C34.7574 46.4062 34.4951 46.8079 34.1613 47.1409C33.8276 47.474 33.4299 47.731 32.9939 47.8953C32.5577 48.0587 32.0932 48.1258 31.6304 48.0923C31.1675 48.0587 30.7167 47.9253 30.3068 47.7006C29.9256 47.4912 29.4876 47.4196 29.0624 47.497C28.6372 47.5745 28.2493 47.7966 27.9604 48.128C27.6497 48.4839 27.2702 48.7686 26.8463 48.9636C26.4225 49.1587 25.9637 49.2597 25.4997 49.2603C25.0357 49.2597 24.577 49.1587 24.1531 48.9636C23.7292 48.7686 23.3497 48.4839 23.039 48.128C22.8575 47.9197 22.6357 47.7532 22.3878 47.6393C22.14 47.5253 21.8717 47.4666 21.6004 47.4668C21.2914 47.4668 20.98 47.5428 20.6926 47.7006C20.2828 47.9253 19.8319 48.0587 19.369 48.0922C18.9062 48.1257 18.4417 48.0586 18.0055 47.8952C17.5696 47.7307 17.172 47.4737 16.8382 47.1407C16.5045 46.8077 16.2421 46.4061 16.0679 45.9618C15.9061 45.5485 15.6151 45.203 15.2413 44.9801C14.8675 44.7573 14.4323 44.6698 14.0049 44.7317C13.5453 44.7981 13.0774 44.7642 12.6313 44.6322C12.1852 44.5002 11.7709 44.2731 11.4151 43.9654C11.06 43.6569 10.7714 43.275 10.5681 42.8442C10.3647 42.4134 10.2511 41.9434 10.2346 41.4644C10.2194 41.0189 10.0605 40.5913 9.78303 40.2497C9.50557 39.9081 9.12551 39.6722 8.70328 39.5793C8.24949 39.4794 7.82102 39.2823 7.44554 39.0007C7.07005 38.7192 6.7559 38.3594 6.52334 37.9448C6.29189 37.5293 6.14732 37.0684 6.09896 36.5917C6.0506 36.1151 6.09952 35.6332 6.24256 35.1772C6.37578 34.7532 6.36792 34.2953 6.22022 33.8764C6.07252 33.4575 5.79347 33.1016 5.42743 32.8653C5.03416 32.611 4.6969 32.2744 4.43741 31.8772C4.17791 31.48 4.00197 31.031 3.92093 30.5591C3.84075 30.0871 3.85737 29.6028 3.96971 29.1378C4.08204 28.6728 4.28759 28.2372 4.57308 27.8593C4.83864 27.5079 4.98288 27.075 4.98288 26.6292C4.98288 26.1834 4.83864 25.7504 4.57308 25.399C4.28759 25.0212 4.08204 24.5856 3.96971 24.1206C3.85737 23.6555 3.84075 23.1713 3.92093 22.6992C4.0019 22.2274 4.17782 21.7783 4.43731 21.3811C4.69681 20.9839 5.03412 20.6473 5.42743 20.3931C5.79347 20.1568 6.07252 19.8009 6.22022 19.382C6.36792 18.9631 6.37578 18.5052 6.24256 18.0811C6.09952 17.6252 6.0506 17.1433 6.09896 16.6666C6.14732 16.19 6.29189 15.729 6.52334 15.3136C6.75584 14.8989 7.06998 14.5391 7.44547 14.2576C7.82096 13.976 8.24946 13.7789 8.70328 13.6791C9.12548 13.5861 9.5055 13.3502 9.78295 13.0086C10.0604 12.667 10.2194 12.2395 10.2346 11.7939C10.2511 11.315 10.3647 10.845 10.5681 10.4142C10.7714 9.98339 11.06 9.60144 11.4151 9.29298C11.7709 8.98529 12.1852 8.7581 12.6313 8.62611C13.0774 8.49411 13.5453 8.46024 14.0049 8.52667C14.8845 8.65475 15.7347 8.14672 16.0679 7.29605C16.2421 6.85188 16.5046 6.45038 16.8383 6.11744C17.1721 5.7845 17.5697 5.52752 18.0055 5.36309C18.4417 5.19954 18.9062 5.13237 19.3691 5.16591C19.8319 5.19945 20.2828 5.33296 20.6926 5.5578C21.0739 5.76686 21.5118 5.83836 21.937 5.76092C22.3621 5.68349 22.75 5.46156 23.039 5.1304C23.3497 4.77449 23.7293 4.48984 24.1531 4.29481C24.577 4.09978 25.0357 3.99871 25.4997 3.99813C25.9637 3.99862 26.4225 4.09964 26.8464 4.29468C27.2702 4.48971 27.6498 4.77442 27.9604 5.1304C28.2494 5.46166 28.6373 5.68366 29.0624 5.7611C29.4876 5.83854 29.9256 5.76698 30.3068 5.5578C30.7168 5.3331 31.1677 5.19969 31.6307 5.16617C32.0936 5.13266 32.5582 5.19979 32.9944 5.36322C33.4303 5.5276 33.8279 5.78461 34.1616 6.11764C34.4952 6.45066 34.7575 6.8523 34.9315 7.29658C35.0935 7.70985 35.3845 8.05536 35.7584 8.27823C36.1323 8.5011 36.5676 8.58854 36.9951 8.52667C37.4546 8.46032 37.9225 8.49424 38.3686 8.62623C38.8147 8.75822 39.229 8.98536 39.5848 9.29298C39.9399 9.60146 40.2284 9.98343 40.4316 10.4142C40.6349 10.845 40.7484 11.315 40.7649 11.7939C40.7801 12.2396 40.9391 12.6672 41.2167 13.0087C41.4942 13.3503 41.8744 13.5862 42.2967 13.6791C42.7504 13.779 43.1788 13.976 43.5542 14.2576C43.9296 14.5392 44.2437 14.8989 44.4761 15.3136C44.7077 15.729 44.8525 16.1899 44.9009 16.6666C44.9494 17.1433 44.9005 17.6252 44.7574 18.0811C44.6241 18.5051 44.6318 18.963 44.7794 19.3819C44.9271 19.8008 45.206 20.1568 45.572 20.3931C45.9654 20.6473 46.3028 20.9839 46.5624 21.3811C46.822 21.7783 46.998 22.2274 47.0791 22.6992C47.1593 23.1713 47.1427 23.6556 47.0303 24.1206C46.918 24.5856 46.7124 25.0212 46.4269 25.399C46.1611 25.7503 46.0167 26.1833 46.0166 26.6291C46.0165 27.0749 46.1608 27.5079 46.4264 27.8593ZM37.4221 54.7473C36.9972 54.6478 36.5524 54.6992 36.1594 54.8932C35.7664 55.0871 35.4481 55.4123 35.2562 55.8161L32.4845 61.6498L28.3243 52.6587C28.8461 52.4282 29.3396 52.1347 29.7947 51.7845C31.2772 52.2442 32.8637 52.1979 34.3186 51.6523C35.7814 51.1026 37.0228 50.076 37.8661 48.7506C38.5662 48.7084 39.2566 48.5609 39.9156 48.3128L43.5577 56.1846L37.4221 54.7473ZM15.7439 55.8161C15.5518 55.4124 15.2336 55.0873 14.8406 54.8934C14.4476 54.6994 14.0028 54.648 13.578 54.7473L7.44221 56.1841L11.0844 48.3123C11.7433 48.5605 12.4337 48.7082 13.1339 48.7506C13.9771 50.076 15.2186 51.1021 16.6814 51.6519C18.1446 52.2021 19.7344 52.2401 21.2052 51.7845C21.6603 52.1346 22.1538 52.4278 22.6755 52.6581L18.5156 61.6492L15.7439 55.8161Z" fill="#FFD93F"/>
<path d="M25.4998 9.11348C16.1487 9.11348 8.54053 16.9708 8.54053 26.6293C8.54053 36.2879 16.1487 44.1451 25.4998 44.1451C34.8515 44.1451 42.4597 36.2877 42.4597 26.6293C42.4597 16.9709 34.8515 9.11348 25.4998 9.11348ZM25.4998 40.147C18.2833 40.147 12.4116 34.0832 12.4116 26.6293C12.4116 19.1755 18.2833 13.1116 25.4998 13.1116C32.7169 13.1116 38.5886 19.1755 38.5886 26.6293C38.5886 34.0832 32.7169 40.147 25.4998 40.147Z" fill="#171717"/>
<path d="M22.5504 32.374C22.9134 32.7488 23.4056 32.9595 23.9189 32.9596C24.432 32.9596 24.9245 32.7488 25.2874 32.374L33.6748 23.7114C34.4309 22.9304 34.4309 21.6649 33.6748 20.884C32.9192 20.1037 31.6933 20.1037 30.9378 20.884L23.9189 28.1333L20.0614 24.1497C19.3058 23.3687 18.08 23.3687 17.3244 24.1497C16.5683 24.9301 16.5683 26.1962 17.3244 26.9765L22.5504 32.374Z" fill="#171717"/>
</svg>
