<svg width="50" height="51" viewBox="0 0 50 51" fill="none" xmlns="http://www.w3.org/2000/svg">
<path d="M30.599 30.041H23.7136V28.1899H26.2834C28.2471 28.1899 30.1304 27.4099 31.5189 26.0213C32.9075 24.6328 33.6876 22.7495 33.6876 20.7858C33.6876 18.8221 32.9075 16.9388 31.5189 15.5502C30.1304 14.1617 28.2471 13.3816 26.2834 13.3816H22.1511C21.7367 13.3816 21.3393 13.5462 21.0463 13.8393C20.7532 14.1323 20.5886 14.5297 20.5886 14.9441V25.0649H17.874C17.4596 25.0649 17.0622 25.2296 16.7692 25.5226C16.4761 25.8156 16.3115 26.213 16.3115 26.6274C16.3115 27.0418 16.4761 27.4393 16.7692 27.7323C17.0622 28.0253 17.4596 28.1899 17.874 28.1899H20.5886V30.041H17.874C17.4596 30.041 17.0622 30.2056 16.7692 30.4986C16.4761 30.7917 16.3115 31.1891 16.3115 31.6035C16.3115 32.0179 16.4761 32.4153 16.7692 32.7083C17.0622 33.0014 17.4596 33.166 17.874 33.166H20.5886V35.5337C20.5886 35.9481 20.7532 36.3455 21.0463 36.6385C21.3393 36.9316 21.7367 37.0962 22.1511 37.0962C22.5655 37.0962 22.9629 36.9316 23.256 36.6385C23.549 36.3455 23.7136 35.9481 23.7136 35.5337V33.166H30.599C31.0134 33.166 31.4109 33.0014 31.7039 32.7083C31.9969 32.4153 32.1615 32.0179 32.1615 31.6035C32.1615 31.1891 31.9969 30.7917 31.7039 30.4986C31.4109 30.2056 31.0134 30.041 30.599 30.041ZM23.7136 16.5066H26.2834C27.4183 16.5066 28.5067 16.9575 29.3092 17.76C30.1117 18.5625 30.5626 19.6509 30.5626 20.7858C30.5626 21.9207 30.1117 23.0091 29.3092 23.8116C28.5067 24.6141 27.4183 25.0649 26.2834 25.0649H23.7136V16.5066Z" fill="#FFD93F"/>
<path d="M25.0002 50.2347C21.0551 50.2343 17.166 49.3002 13.651 47.5088C10.136 45.7173 7.09485 43.1195 4.77621 39.9276C2.45758 36.7356 0.927274 33.0403 0.310418 29.1436C-0.306438 25.247 0.00766528 21.2597 1.22705 17.5077C2.44643 13.7556 4.53647 10.3455 7.3263 7.556C10.1161 4.7665 13.5265 2.67686 17.2787 1.45792C21.0308 0.238973 25.0182 -0.0746635 28.9148 0.542649C32.8113 1.15996 36.5065 2.6907 39.6981 5.00971C39.8641 5.13043 40.0046 5.28265 40.1117 5.45768C40.2188 5.63271 40.2904 5.82712 40.3224 6.02981C40.3543 6.2325 40.3461 6.43951 40.298 6.63901C40.25 6.8385 40.1631 7.02659 40.0424 7.19252C39.9217 7.35845 39.7695 7.49898 39.5944 7.60608C39.4194 7.71318 39.225 7.78476 39.0223 7.81673C38.613 7.88129 38.1947 7.7806 37.8596 7.53679C33.5126 4.38242 28.1559 2.93997 22.8127 3.48497C17.4695 4.02997 12.5143 6.52422 8.89365 10.4913C5.273 14.4584 3.24064 19.6202 3.18477 24.9908C3.1289 30.3614 5.05345 35.5644 8.59079 39.6059C12.1281 43.6475 17.0303 46.2443 22.361 46.9003C27.6917 47.5563 33.0773 46.2256 37.489 43.1624C41.9007 40.0991 45.0294 35.518 46.2773 30.2941C47.5253 25.0702 46.8051 19.5696 44.2544 14.843C44.0721 14.4798 44.0385 14.0599 44.1607 13.6723C44.2829 13.2847 44.5512 12.96 44.9089 12.767C45.2665 12.5741 45.6853 12.528 46.0763 12.6387C46.4673 12.7493 46.7999 13.0079 47.0034 13.3597C49.0569 17.1686 50.087 21.4452 49.9929 25.7714C49.8987 30.0976 48.6836 34.3254 46.4663 38.0413C44.249 41.7573 41.1054 44.8343 37.3428 46.9716C33.5802 49.1088 29.3275 50.2332 25.0002 50.2347Z" fill="#171717"/>
<path d="M42.8345 11.5889C42.6087 11.5892 42.3856 11.5406 42.1804 11.4463C41.9752 11.3521 41.7929 11.2145 41.646 11.0431L41.3647 10.7191C41.2254 10.5663 41.1178 10.3873 41.0482 10.1925C40.9786 9.99774 40.9483 9.79111 40.9592 9.58457C40.97 9.37803 41.0218 9.17571 41.1114 8.98932C41.2011 8.80294 41.3269 8.63621 41.4814 8.4988C41.636 8.36139 41.8163 8.25603 42.0119 8.18884C42.2075 8.12165 42.4145 8.09397 42.6209 8.10739C42.8273 8.12081 43.029 8.17507 43.2142 8.26703C43.3995 8.35898 43.5646 8.4868 43.7001 8.64307L44.021 9.01078C44.2151 9.2377 44.3401 9.51549 44.3812 9.81125C44.4223 10.107 44.3778 10.4084 44.253 10.6796C44.1281 10.9509 43.9282 11.1807 43.6768 11.3418C43.4254 11.503 43.1331 11.5887 42.8345 11.5889Z" fill="#171717"/>
</svg>
